# xmcd
#
# Track frame offsets:
#	150
#	13819
#	32215
#	49889
#	66326
#	84872
#	101366
#	121005
#	136123
#	154875
#	170314
#	188972
#	206453
#	222824
#	240581
#
# Disc length: 3454 seconds
#
# Revision: 1
# Processed by: cddbd v1.5.2PL0 Copyright (c) Steve Scherf et al.
# Submitted via: audiograbber 1.83.01
#
DISCID=c30d7c0f
DTITLE=Minos 98 - Cd 1
DYEAR=1900
DGENRE=
TTITLE0=Πάριος Γιάννης  - Τα Θες Όλα Δικά Σου
TTITLE1=Δημητρίου ’ντζελα  - Μαργαρίτες 
TTITLE2=Καρράς Βασίλης  - Απορώ Αν Αισθάνεσαι Τύψεις 
TTITLE3=Κωνσταντίνα  - Ζάλη 
TTITLE4=Σφακιανάκης Νότης  - Μια Ματιά Σου Μόνο Φτάνει 
TTITLE5=Μίρκας Γιάννης  - Αχαριστία 
TTITLE6=Δήμου Ελένη  - Μάτια μου 
TTITLE7=Βοσκόπουλος Τόλης  - Το Καλύτερο Παιδί 
TTITLE8=Κοντολάζος Δημήτρης  - Χωρίς Κανόνες 
TTITLE9=Χαραμή Μαρία  - Σιγά 
TTITLE10=Καρράς Βασίλης  - Γι' Αυτό Στάσου 
TTITLE11=Μπέζος Γιώργος  - Δεν Έχεις Καρδιά 
TTITLE12=Ευριδίκη  - Πες Το Μου Αυτό 
TTITLE13=O.P.A.  - Φώναξε 
TTITLE14=Σαρρής Μιχάλης - Τυπική Διαδικασία 
EXTD=
EXTT0=
EXTT1=
EXTT2=
EXTT3=
EXTT4=
EXTT5=
EXTT6=
EXTT7=
EXTT8=
EXTT9=
EXTT10=
EXTT11=
EXTT12=
EXTT13=
EXTT14=
PLAYORDER=
